<svg width="24" height="24" viewBox="0 0 24 24" fill="none" xmlns="http://www.w3.org/2000/svg">
<path d="M12 12V3L16.912 4.914C17.1919 5.02302 17.438 5.20427 17.625 5.4393C17.8121 5.67432 17.9336 5.95472 17.9771 6.25196C18.0206 6.5492 17.9846 6.85265 17.8727 7.13143C17.7607 7.4102 17.5769 7.65435 17.34 7.839L12 12ZM12 12H21L19.086 16.912C18.977 17.1919 18.7957 17.438 18.5607 17.625C18.3257 17.8121 18.0453 17.9336 17.748 17.9771C17.4508 18.0206 17.1473 17.9846 16.8686 17.8727C16.5898 17.7607 16.3457 17.5769 16.161 17.34L12 12ZM12 12H3L4.914 7.088C5.02302 6.80808 5.20427 6.56205 5.4393 6.37495C5.67432 6.18785 5.95472 6.06638 6.25196 6.02288C6.5492 5.97939 6.85265 6.01544 7.13143 6.12735C7.4102 6.23927 7.65435 6.42305 7.839 6.66L12 12ZM12 12V21L7.088 19.086C6.80808 18.977 6.56205 18.7957 6.37495 18.5607C6.18785 18.3257 6.06638 18.0453 6.02288 17.748C5.97939 17.4508 6.01544 17.1473 6.12735 16.8686C6.23927 16.5898 6.42305 16.3457 6.66 16.161L12 12Z" stroke="black" stroke-width="2" stroke-linecap="round" stroke-linejoin="round"/>
</svg>
