<svg width="32" height="32" viewBox="0 0 32 32" fill="none" xmlns="http://www.w3.org/2000/svg">
<path d="M16.5334 18.5579L12.3058 22.797C12.0382 23.0627 11.6981 23.1955 11.2855 23.1955C10.873 23.1955 10.5329 23.0627 10.2653 22.797C9.99955 22.5313 9.8667 22.1931 9.8667 21.7825C9.8667 21.3719 9.99955 21.0337 10.2653 20.768L14.5044 16.5289L10.2653 12.3376C9.99955 12.0699 9.8667 11.7298 9.8667 11.3173C9.8667 10.9047 9.99955 10.5646 10.2653 10.297C10.531 10.0313 10.8691 9.89844 11.2797 9.89844C11.6904 9.89844 12.0285 10.0313 12.2942 10.297L16.5334 14.5361L20.7247 10.297C20.9923 10.0313 21.3324 9.89844 21.745 9.89844C22.1575 9.89844 22.4976 10.0313 22.7652 10.297C23.0551 10.5868 23.2 10.9313 23.2 11.3303C23.2 11.7294 23.0551 12.0612 22.7652 12.326L18.5261 16.5289L22.7652 20.7564C23.0309 21.024 23.1638 21.3641 23.1638 21.7767C23.1638 22.1893 23.0309 22.5294 22.7652 22.797C22.4754 23.0868 22.1314 23.2318 21.7334 23.2318C21.3353 23.2318 21.0029 23.0868 20.7363 22.797L16.5334 18.5579Z" fill="black"/>
</svg>
