<svg width="10" height="10" viewBox="0 0 10 10" fill="none" xmlns="http://www.w3.org/2000/svg">
<path d="M4.04895 0.926638C4.34833 0.00537562 5.65167 0.0053761 5.95105 0.926639L6.34722 2.14577C6.4811 2.55776 6.86502 2.8367 7.29822 2.83672L8.58011 2.83676C9.5488 2.8368 9.95155 4.07635 9.16789 4.64576L8.13085 5.39927C7.78039 5.65391 7.63375 6.10525 7.7676 6.51725L8.16367 7.73641C8.46298 8.65769 7.40855 9.42378 6.62485 8.85443L5.58775 8.10099C5.23728 7.84638 4.76272 7.84638 4.41225 8.10099L3.37515 8.85443C2.59144 9.42378 1.53702 8.65769 1.83633 7.73641L2.23241 6.51725C2.36626 6.10525 2.21961 5.65391 1.86915 5.39927L0.832114 4.64576C0.0484526 4.07635 0.451207 2.8368 1.41989 2.83676L2.70178 2.83672C3.13498 2.8367 3.5189 2.55776 3.65278 2.14577L4.04895 0.926638Z" fill="#F8B334"/>
</svg>
